<?xml version="1.0" encoding="utf-8"?>
<!-- Svg Vector Icons : http://www.onlinewebfonts.com/icon -->
<!DOCTYPE svg PUBLIC "-//W3C//DTD SVG 1.1//EN" "http://www.w3.org/Graphics/SVG/1.1/DTD/svg11.dtd">
<svg version="1.1" xmlns="http://www.w3.org/2000/svg" xmlns:xlink="http://www.w3.org/1999/xlink" x="0px" y="0px" viewBox="0 0 1000 1000" enable-background="new 0 0 1000 1000" xml:space="preserve">
<metadata> Svg Vector Icons : http://www.onlinewebfonts.com/icon </metadata>
<g><path d="M977.7,515.4L528.7,75.7c-16-15.7-41.5-15.7-57.5,0L22.3,515.4c-11.9,11.7-15.6,29.4-9.3,44.8c6.3,15.5,21.3,25.6,38,25.6h109V895c0,22.7,18.4,41.1,41.1,41.1h597.8c22.7,0,41.1-18.4,41.1-41.1V585.8h109c16.7,0,31.7-10.1,38-25.6C993.3,544.8,989.6,527,977.7,515.4z M550.1,854h-84.4V645.8h84.4V854z M798.9,503.6c-22.7,0-41.1,18.4-41.1,41.1V854H632.2V604.7c0-22.7-18.4-41.1-41.1-41.1H424.6c-22.7,0-41.1,18.4-41.1,41.1V854H242.1V544.7c0-22.7-18.4-41.1-41.1-41.1h-49.4L500,162.5l348.3,341.2H798.9z"/></g>
</svg>