<?xml version="1.0" encoding="utf-8"?>
<!-- Svg Vector Icons : http://www.onlinewebfonts.com/icon -->
<!DOCTYPE svg PUBLIC "-//W3C//DTD SVG 1.1//EN" "http://www.w3.org/Graphics/SVG/1.1/DTD/svg11.dtd">
<svg version="1.1" xmlns="http://www.w3.org/2000/svg" xmlns:xlink="http://www.w3.org/1999/xlink" x="0px" y="0px" viewBox="0 0 1000 1000" enable-background="new 0 0 1000 1000" xml:space="preserve">
<metadata> Svg Vector Icons : http://www.onlinewebfonts.com/icon </metadata>
<g><g transform="translate(0.000000,511.000000) scale(0.100000,-0.100000)"><path d="M4863.9,4038.1c-31.1-11.6-83.5-38.8-116.5-62.1C4588.3,3865.4,162.6,402.5,133.5,367.5c-44.6-56.3-44.6-186.3,0-238.8c75.7-95.1,194.1-110.6,297-40.8c67.9,46.6,4499.4,3499.8,4569.3,3561.9c21.4,17.5,58.2,60.2,81.5,91.2l44.6,58.2l-21.3-67.9c-11.7-36.9-27.2-81.5-34.9-97.1c-11.7-23.3,493-427,2185.7-1747c1209.3-945.3,2240-1747,2288.5-1781.9c126.2-87.3,238.8-81.5,322.2,23.3c48.5,60.2,44.7,184.4-9.7,246.5C9771,478.2,5223,4005.1,5141.5,4034.2C5050.3,4065.3,4947.4,4067.2,4863.9,4038.1z"/><path d="M1699.9,3422.8c-97.1-42.7-176.6-133.9-203.8-231c-23.3-85.4-27.2-1290.8-3.9-1281.1c9.7,3.9,184.4,145.6,390.2,316.4l372.7,310.6l-5.8,351.3l-5.8,351.3l-56.3,71.8C2082.3,3450,1866.9,3498.5,1699.9,3422.8z"/><path d="M3216,1545.8C2280.3,835.3,1500,231.7,1480.6,202.5c-31.1-46.6-33-165-33-1673.2v-1620.8l44.6-114.5c118.4-312.5,347.5-522.1,658-603.7c91.2-23.3,271.8-29.1,970.5-29.1h859.9V-2678c0,762.9,7.8,1184.1,21.4,1234.5c27.2,97.1,159.2,229,262.1,260.1c56.3,15.5,267.9,23.3,708.5,23.3c621.1,0,630.8,0,727.9-46.6c104.8-48.5,182.5-133.9,219.3-242.6c15.5-46.6,21.3-411.5,21.3-1226.8v-1162.7h898.7c733.7,0,918.1,5.8,1009.4,29.1c310.6,81.5,539.6,291.2,658,603.7l44.6,114.5v1620.8c0,1504.3-1.9,1626.6-33,1673.2c-19.4,29.1-799.7,632.8-1735.3,1343.2c-1644.1,1252-1702.3,1292.8-1783.9,1292.8C4918.3,2838.5,4862,2797.8,3216,1545.8z M6577.9,1178.9L8134.6-5.2v-1496.6c0-1642.2,3.9-1583.9-116.5-1735.3c-34.9-42.7-106.8-99-170.8-130.1l-110.6-54.3l-683.3-5.8l-685.2-5.8v908.4c0,498.9-9.7,972.5-19.4,1050.1c-40.8,314.5-258.2,582.3-557.1,685.2c-100.9,33-166.9,36.9-830.8,36.9c-788.1,0-826.9-3.9-1011.3-122.3c-112.6-69.9-256.2-232.9-308.6-349.4c-77.6-170.8-87.3-302.8-87.3-1281.1v-927.8l-644.4,5.8l-646.4,5.8l-110.7,54.3c-62.1,31.1-137.8,87.4-170.8,126.2c-120.4,145.6-116.5,97.1-116.5,1739.2V-5.2l1558.7,1187.9c856,652.2,1566.5,1186,1576.2,1184.1C5011.4,2364.9,5721.9,1831.1,6577.9,1178.9z"/></g></g>
</svg>