<?xml version="1.0" encoding="utf-8"?>
<!-- Svg Vector Icons : http://www.onlinewebfonts.com/icon -->
<!DOCTYPE svg PUBLIC "-//W3C//DTD SVG 1.1//EN" "http://www.w3.org/Graphics/SVG/1.1/DTD/svg11.dtd">
<svg version="1.1" xmlns="http://www.w3.org/2000/svg" xmlns:xlink="http://www.w3.org/1999/xlink" x="0px" y="0px" viewBox="0 0 1000 1000" enable-background="new 0 0 1000 1000" xml:space="preserve">
<metadata> Svg Vector Icons : http://www.onlinewebfonts.com/icon </metadata>
<g><path d="M268.5,370.6c0,22.2,17,40.1,37.8,40.1c0.2,0,0.4,0,0.7,0c7.8,105.8,91.2,211.7,193,211.7c101.8,0,185.2-105.9,193-211.7c0.2,0,0.4,0,0.7,0c20.9,0,37.8-18,37.8-40.1c0-16.4-9.2-30.4-22.4-36.7c7.7-23.8,11.9-49.2,11.9-75.7c0-129.4-98.9-234.4-221-234.4c-122.1,0-221,104.9-221,234.4c0,26.5,4.2,51.9,11.9,75.7C277.7,340.2,268.5,354.2,268.5,370.6z M983.7,867.3c-90.2-87.6-200.4-149.5-318.8-179c-3-1.6-6.4-2.5-9.9-2.5h-10.7c-3.4,0-6.7,0.9-9.7,2.5c-35.8,19.2-84.8,30.2-134.6,30.2c-49.8,0-98.8-11-134.6-30.2c-3-1.6-6.4-2.4-9.7-2.4h-7.8c-1.6,0-3.2,0.2-4.7,0.6c-121.6,28.8-234.6,91.3-326.8,181c-4,3.9-6.3,9.2-6.3,14.7v73.6c0,11.3,9.2,20.6,20.6,20.6h938.8c11.4,0,20.6-9.2,20.6-20.6V882C990,876.4,987.7,871.1,983.7,867.3z"/></g>
</svg>